<svg xmlns="http://www.w3.org/2000/svg" width="230.79" height="35" viewBox="0 0 230.79 35"><rect class="svg__rect" x="0" y="0" width="134.76" height="35" fill="#000000"/><rect class="svg__rect" x="132.76" y="0" width="98.03" height="35" fill="#898989"/><path class="svg__text" d="M13.95 18.19L13.95 18.19L13.95 17.39Q13.95 16.19 14.38 15.27Q14.80 14.35 15.60 13.85Q16.40 13.35 17.45 13.35L17.45 13.35Q18.86 13.35 19.73 14.12Q20.59 14.89 20.73 16.29L20.73 16.29L19.25 16.29Q19.14 15.37 18.71 14.96Q18.28 14.55 17.45 14.55L17.45 14.55Q16.48 14.55 15.97 15.26Q15.45 15.96 15.44 17.33L15.44 17.33L15.44 18.09Q15.44 19.47 15.93 20.20Q16.43 20.92 17.38 20.92L17.38 20.92Q18.25 20.92 18.69 20.53Q19.13 20.14 19.25 19.22L19.25 19.22L20.73 19.22Q20.60 20.59 19.72 21.35Q18.84 22.12 17.38 22.12L17.38 22.12Q16.36 22.12 15.59 21.63Q14.81 21.15 14.39 20.26Q13.97 19.37 13.95 18.19ZM30.62 22L25.04 22L25.04 13.47L30.58 13.47L30.58 14.66L26.52 14.66L26.52 17.02L30.03 17.02L30.03 18.19L26.52 18.19L26.52 20.82L30.62 20.82L30.62 22ZM36.30 22L34.81 22L34.81 13.47L37.81 13.47Q39.29 13.47 40.09 14.13Q40.89 14.79 40.89 16.05L40.89 16.05Q40.89 16.90 40.48 17.48Q40.07 18.06 39.33 18.37L39.33 18.37L41.25 21.92L41.25 22L39.66 22L37.95 18.71L36.30 18.71L36.30 22ZM36.30 14.66L36.30 17.52L37.82 17.52Q38.57 17.52 38.99 17.15Q39.41 16.77 39.41 16.11L39.41 16.11Q39.41 15.43 39.02 15.05Q38.63 14.68 37.86 14.66L37.86 14.66L36.30 14.66ZM46.97 14.66L44.33 14.66L44.33 13.47L51.10 13.47L51.10 14.66L48.44 14.66L48.44 22L46.97 22L46.97 14.66ZM56.42 22L54.95 22L54.95 13.47L56.42 13.47L56.42 22ZM62.72 22L61.23 22L61.23 13.47L66.65 13.47L66.65 14.66L62.72 14.66L62.72 17.20L66.15 17.20L66.15 18.38L62.72 18.38L62.72 22ZM72.38 22L70.90 22L70.90 13.47L72.38 13.47L72.38 22ZM82.77 22L77.19 22L77.19 13.47L82.72 13.47L82.72 14.66L78.67 14.66L78.67 17.02L82.17 17.02L82.17 18.19L78.67 18.19L78.67 20.82L82.77 20.82L82.77 22ZM89.42 22L86.96 22L86.96 13.47L89.48 13.47Q90.61 13.47 91.49 13.97Q92.36 14.48 92.84 15.40Q93.32 16.33 93.32 17.52L93.32 17.52L93.32 17.95Q93.32 19.16 92.84 20.08Q92.36 21.00 91.46 21.50Q90.57 22 89.42 22L89.42 22ZM88.44 14.66L88.44 20.82L89.41 20.82Q90.58 20.82 91.20 20.09Q91.82 19.36 91.84 17.99L91.84 17.99L91.84 17.52Q91.84 16.13 91.23 15.40Q90.63 14.66 89.48 14.66L89.48 14.66L88.44 14.66ZM106.88 22L103.77 22L103.77 13.47L106.69 13.47Q108.14 13.47 108.89 14.05Q109.65 14.63 109.65 15.78L109.65 15.78Q109.65 16.36 109.33 16.83Q109.02 17.30 108.41 17.56L108.41 17.56Q109.10 17.75 109.48 18.26Q109.85 18.78 109.85 19.51L109.85 19.51Q109.85 20.71 109.08 21.36Q108.31 22 106.88 22L106.88 22ZM105.25 18.15L105.25 20.82L106.89 20.82Q107.59 20.82 107.98 20.47Q108.38 20.13 108.38 19.51L108.38 19.51Q108.38 18.18 107.02 18.15L107.02 18.15L105.25 18.15ZM105.25 14.66L105.25 17.06L106.70 17.06Q107.39 17.06 107.78 16.75Q108.17 16.43 108.17 15.86L108.17 15.86Q108.17 15.23 107.81 14.95Q107.45 14.66 106.69 14.66L106.69 14.66L105.25 14.66ZM116.36 18.86L113.50 13.47L115.14 13.47L117.11 17.51L119.07 13.47L120.71 13.47L117.85 18.86L117.85 22L116.36 22L116.36 18.86Z" fill="#FFFFFF"/><path class="svg__text" d="M149.15 22L146.95 22L146.95 13.60L148.90 13.60L151.86 18.45L154.74 13.60L156.69 13.60L156.72 22L154.54 22L154.51 17.55L152.35 21.17L151.30 21.17L149.15 17.67L149.15 22ZM164.00 18.95L160.80 13.60L163.31 13.60L165.30 16.94L167.29 13.60L169.59 13.60L166.38 18.99L166.38 22L164.00 22L164.00 18.95ZM182.85 22L180.65 22L180.65 13.60L182.61 13.60L185.56 18.45L188.44 13.60L190.40 13.60L190.42 22L188.24 22L188.22 17.55L186.05 21.17L185.00 21.17L182.85 17.67L182.85 22ZM195.15 17.80L195.15 17.80Q195.15 16.55 195.76 15.55Q196.36 14.56 197.42 14.00Q198.49 13.43 199.82 13.43L199.82 13.43Q201.15 13.43 202.21 14.00Q203.27 14.56 203.88 15.55Q204.49 16.55 204.49 17.80L204.49 17.80Q204.49 19.05 203.88 20.04Q203.27 21.04 202.21 21.60Q201.15 22.17 199.82 22.17L199.82 22.17Q198.49 22.17 197.42 21.60Q196.36 21.04 195.76 20.04Q195.15 19.05 195.15 17.80ZM197.55 17.80L197.55 17.80Q197.55 18.51 197.85 19.05Q198.15 19.60 198.67 19.90Q199.18 20.20 199.82 20.20L199.82 20.20Q200.46 20.20 200.97 19.90Q201.49 19.60 201.79 19.05Q202.08 18.51 202.08 17.80L202.08 17.80Q202.08 17.09 201.79 16.54Q201.49 16 200.97 15.70Q200.46 15.40 199.82 15.40L199.82 15.40Q199.18 15.40 198.67 15.70Q198.15 16 197.85 16.54Q197.55 17.09 197.55 17.80ZM211.41 22L209.22 22L209.22 13.60L211.17 13.60L214.13 18.45L217.01 13.60L218.96 13.60L218.98 22L216.80 22L216.78 17.55L214.62 21.17L213.56 21.17L211.41 17.67L211.41 22Z" fill="#FFFFFF" x="145.76"/></svg>